<mxfile host="app.diagrams.net" agent="Mozilla/5.0 (Windows NT 10.0; Win64; x64) AppleWebKit/537.36 (KHTML, like Gecko) Chrome/131.0.0.0 Safari/537.36" version="25.0.1">
  <diagram name="Trang-1" id="VRfFUahO_GAwwL6egVN5">
    <mxGraphModel dx="1290" dy="1699" grid="1" gridSize="10" guides="1" tooltips="1" connect="1" arrows="1" fold="1" page="1" pageScale="1" pageWidth="827" pageHeight="1169" math="0" shadow="0">
      <root>
        <mxCell id="0" />
        <mxCell id="1" parent="0" />
        <mxCell id="VSk6_7lrO1GYOzsb9I7B-1" value="" style="rounded=1;whiteSpace=wrap;html=1;" parent="1" vertex="1">
          <mxGeometry x="200" y="80" width="350" height="110" as="geometry" />
        </mxCell>
        <mxCell id="VSk6_7lrO1GYOzsb9I7B-2" value="&lt;font style=&quot;font-size: 15px;&quot;&gt;Presentation&lt;/font&gt;" style="text;html=1;align=left;verticalAlign=middle;whiteSpace=wrap;rounded=0;" parent="1" vertex="1">
          <mxGeometry x="100" y="110" width="100" height="50" as="geometry" />
        </mxCell>
        <mxCell id="VSk6_7lrO1GYOzsb9I7B-3" value="&lt;span style=&quot;font-size: 14px;&quot;&gt;Web app&lt;/span&gt;" style="text;html=1;align=center;verticalAlign=middle;whiteSpace=wrap;rounded=0;" parent="1" vertex="1">
          <mxGeometry x="350" y="150" width="60" height="30" as="geometry" />
        </mxCell>
        <mxCell id="VSk6_7lrO1GYOzsb9I7B-5" value="&lt;span style=&quot;color: rgb(0, 0, 0); font-family: Helvetica; font-size: 14px; font-style: normal; font-variant-ligatures: normal; font-variant-caps: normal; font-weight: 400; letter-spacing: normal; orphans: 2; text-align: center; text-indent: 0px; text-transform: none; widows: 2; word-spacing: 0px; -webkit-text-stroke-width: 0px; white-space: normal; background-color: rgb(251, 251, 251); text-decoration-thickness: initial; text-decoration-style: initial; text-decoration-color: initial; display: inline !important; float: none;&quot;&gt;Student dashboard&lt;/span&gt;" style="text;whiteSpace=wrap;html=1;" parent="1" vertex="1">
          <mxGeometry x="220" y="90" width="130" height="40" as="geometry" />
        </mxCell>
        <mxCell id="VSk6_7lrO1GYOzsb9I7B-6" value="&lt;span style=&quot;color: rgb(0, 0, 0); font-family: Helvetica; font-size: 14px; font-style: normal; font-variant-ligatures: normal; font-variant-caps: normal; font-weight: 400; letter-spacing: normal; orphans: 2; text-align: center; text-indent: 0px; text-transform: none; widows: 2; word-spacing: 0px; -webkit-text-stroke-width: 0px; white-space: normal; background-color: rgb(251, 251, 251); text-decoration-thickness: initial; text-decoration-style: initial; text-decoration-color: initial; display: inline !important; float: none;&quot;&gt;Lecturer dashboard&amp;nbsp;&lt;/span&gt;" style="text;whiteSpace=wrap;html=1;" parent="1" vertex="1">
          <mxGeometry x="309" y="120" width="130" height="40" as="geometry" />
        </mxCell>
        <mxCell id="VSk6_7lrO1GYOzsb9I7B-7" value="&lt;span style=&quot;color: rgb(0, 0, 0); font-family: Helvetica; font-size: 14px; font-style: normal; font-variant-ligatures: normal; font-variant-caps: normal; font-weight: 400; letter-spacing: normal; orphans: 2; text-align: center; text-indent: 0px; text-transform: none; widows: 2; word-spacing: 0px; -webkit-text-stroke-width: 0px; white-space: normal; background-color: rgb(251, 251, 251); text-decoration-thickness: initial; text-decoration-style: initial; text-decoration-color: initial; display: inline !important; float: none;&quot;&gt;Admin dashboard&lt;/span&gt;" style="text;whiteSpace=wrap;html=1;" parent="1" vertex="1">
          <mxGeometry x="410" y="90" width="120" height="40" as="geometry" />
        </mxCell>
        <mxCell id="VSk6_7lrO1GYOzsb9I7B-8" value="" style="rounded=1;whiteSpace=wrap;html=1;" parent="1" vertex="1">
          <mxGeometry x="200" y="240" width="350" height="110" as="geometry" />
        </mxCell>
        <mxCell id="VSk6_7lrO1GYOzsb9I7B-10" value="&lt;font style=&quot;font-size: 15px;&quot;&gt;UI services&amp;nbsp;&lt;/font&gt;" style="text;html=1;align=left;verticalAlign=middle;whiteSpace=wrap;rounded=0;" parent="1" vertex="1">
          <mxGeometry x="99" y="270" width="100" height="50" as="geometry" />
        </mxCell>
        <mxCell id="VSk6_7lrO1GYOzsb9I7B-11" value="&lt;span style=&quot;font-size: 14px;&quot;&gt;UI management&amp;nbsp;&lt;/span&gt;" style="text;html=1;align=left;verticalAlign=middle;whiteSpace=wrap;rounded=0;" parent="1" vertex="1">
          <mxGeometry x="325" y="260" width="130" height="30" as="geometry" />
        </mxCell>
        <mxCell id="VSk6_7lrO1GYOzsb9I7B-13" value="&lt;span style=&quot;font-size: 14px;&quot;&gt;System authentication and authorization&lt;/span&gt;" style="text;html=1;align=left;verticalAlign=middle;whiteSpace=wrap;rounded=0;" parent="1" vertex="1">
          <mxGeometry x="250" y="300" width="300" height="30" as="geometry" />
        </mxCell>
        <mxCell id="VSk6_7lrO1GYOzsb9I7B-14" style="edgeStyle=orthogonalEdgeStyle;rounded=0;orthogonalLoop=1;jettySize=auto;html=1;exitX=0.5;exitY=1;exitDx=0;exitDy=0;" parent="1" source="VSk6_7lrO1GYOzsb9I7B-13" target="VSk6_7lrO1GYOzsb9I7B-13" edge="1">
          <mxGeometry relative="1" as="geometry" />
        </mxCell>
        <mxCell id="VSk6_7lrO1GYOzsb9I7B-15" value="" style="rounded=1;whiteSpace=wrap;html=1;" parent="1" vertex="1">
          <mxGeometry x="200" y="400" width="350" height="110" as="geometry" />
        </mxCell>
        <mxCell id="VSk6_7lrO1GYOzsb9I7B-17" value="&lt;font style=&quot;font-size: 15px;&quot;&gt;Application&lt;/font&gt;&lt;div&gt;&lt;font style=&quot;font-size: 15px;&quot;&gt;services&amp;nbsp;&lt;/font&gt;&lt;/div&gt;" style="text;html=1;align=left;verticalAlign=middle;whiteSpace=wrap;rounded=0;" parent="1" vertex="1">
          <mxGeometry x="99" y="430" width="80" height="50" as="geometry" />
        </mxCell>
        <mxCell id="VSk6_7lrO1GYOzsb9I7B-18" value="&lt;span style=&quot;font-size: 14px;&quot;&gt;Quiz managemen&lt;/span&gt;&lt;span style=&quot;color: rgba(0, 0, 0, 0); font-family: monospace; font-size: 0px; text-wrap-mode: nowrap;&quot;&gt;%3CmxGraphModel%3E%3Croot%3E%3CmxCell%20id%3D%220%22%2F%3E%3CmxCell%20id%3D%221%22%20parent%3D%220%22%2F%3E%3CmxCell%20id%3D%222%22%20value%3D%22%26lt%3Bspan%20style%3D%26quot%3Bfont-size%3A%2014px%3B%26quot%3B%26gt%3BUI%20management%26amp%3Bnbsp%3B%26lt%3B%2Fspan%26gt%3B%22%20style%3D%22text%3Bhtml%3D1%3Balign%3Dleft%3BverticalAlign%3Dmiddle%3BwhiteSpace%3Dwrap%3Brounded%3D0%3B%22%20vertex%3D%221%22%20parent%3D%221%22%3E%3CmxGeometry%20x%3D%22225%22%20y%3D%22270%22%20width%3D%22130%22%20height%3D%2230%22%20as%3D%22geometry%22%2F%3E%3C%2FmxCell%3E%3C%2Froot%3E%3C%2FmxGraphModel%3E&lt;/span&gt;&lt;span style=&quot;font-size: 14px;&quot;&gt;t&amp;nbsp;&lt;/span&gt;" style="text;html=1;align=center;verticalAlign=middle;whiteSpace=wrap;rounded=0;" parent="1" vertex="1">
          <mxGeometry x="220" y="420" width="100" height="30" as="geometry" />
        </mxCell>
        <mxCell id="VSk6_7lrO1GYOzsb9I7B-19" value="&lt;span style=&quot;font-size: 14px;&quot;&gt;Question managemen&lt;/span&gt;&lt;span style=&quot;color: rgba(0, 0, 0, 0); font-family: monospace; font-size: 0px; text-wrap-mode: nowrap;&quot;&gt;%3CmxGraphModel%3E%3Croot%3E%3CmxCell%20id%3D%220%22%2F%3E%3CmxCell%20id%3D%221%22%20parent%3D%220%22%2F%3E%3CmxCell%20id%3D%222%22%20value%3D%22%26lt%3Bspan%20style%3D%26quot%3Bfont-size%3A%2014px%3B%26quot%3B%26gt%3BUI%20management%26amp%3Bnbsp%3B%26lt%3B%2Fspan%26gt%3B%22%20style%3D%22text%3Bhtml%3D1%3Balign%3Dleft%3BverticalAlign%3Dmiddle%3BwhiteSpace%3Dwrap%3Brounded%3D0%3B%22%20vertex%3D%221%22%20parent%3D%221%22%3E%3CmxGeometry%20x%3D%22225%22%20y%3D%22270%22%20width%3D%22130%22%20height%3D%2230%22%20as%3D%22geometry%22%2F%3E%3C%2FmxCell%3E%3C%2Froot%3E%3C%2FmxGraphModel%3E&lt;/span&gt;&lt;span style=&quot;font-size: 14px;&quot;&gt;t&amp;nbsp;&lt;/span&gt;" style="text;html=1;align=center;verticalAlign=middle;whiteSpace=wrap;rounded=0;" parent="1" vertex="1">
          <mxGeometry x="327" y="420" width="103" height="30" as="geometry" />
        </mxCell>
        <mxCell id="VSk6_7lrO1GYOzsb9I7B-20" value="&lt;span style=&quot;font-size: 14px;&quot;&gt;Score evaluation&lt;/span&gt;" style="text;html=1;align=center;verticalAlign=middle;whiteSpace=wrap;rounded=0;" parent="1" vertex="1">
          <mxGeometry x="455" y="420" width="70" height="30" as="geometry" />
        </mxCell>
        <mxCell id="VSk6_7lrO1GYOzsb9I7B-21" value="&lt;span style=&quot;font-size: 14px;&quot;&gt;Event logging&lt;/span&gt;" style="text;html=1;align=center;verticalAlign=middle;whiteSpace=wrap;rounded=0;" parent="1" vertex="1">
          <mxGeometry x="264" y="470" width="91" height="30" as="geometry" />
        </mxCell>
        <mxCell id="VSk6_7lrO1GYOzsb9I7B-22" value="&lt;span style=&quot;font-size: 14px;&quot;&gt;Reporting&lt;/span&gt;" style="text;html=1;align=left;verticalAlign=middle;whiteSpace=wrap;rounded=0;" parent="1" vertex="1">
          <mxGeometry x="410" y="470" width="130" height="30" as="geometry" />
        </mxCell>
        <mxCell id="VSk6_7lrO1GYOzsb9I7B-25" value="" style="rounded=1;whiteSpace=wrap;html=1;" parent="1" vertex="1">
          <mxGeometry x="200" y="560" width="350" height="110" as="geometry" />
        </mxCell>
        <mxCell id="VSk6_7lrO1GYOzsb9I7B-26" value="&lt;span style=&quot;font-size: 15px;&quot;&gt;Database&amp;nbsp;&lt;/span&gt;" style="text;html=1;align=left;verticalAlign=middle;whiteSpace=wrap;rounded=0;" parent="1" vertex="1">
          <mxGeometry x="100" y="580" width="80" height="50" as="geometry" />
        </mxCell>
        <mxCell id="VSk6_7lrO1GYOzsb9I7B-27" value="&lt;span style=&quot;font-size: 14px;&quot;&gt;Student&amp;nbsp;&lt;/span&gt;" style="text;html=1;align=center;verticalAlign=middle;whiteSpace=wrap;rounded=0;" parent="1" vertex="1">
          <mxGeometry x="200" y="570" width="101" height="30" as="geometry" />
        </mxCell>
        <mxCell id="VSk6_7lrO1GYOzsb9I7B-28" value="&lt;span style=&quot;font-size: 14px;&quot;&gt;Lecturer&lt;/span&gt;" style="text;html=1;align=center;verticalAlign=middle;whiteSpace=wrap;rounded=0;" parent="1" vertex="1">
          <mxGeometry x="309" y="570" width="101" height="30" as="geometry" />
        </mxCell>
        <mxCell id="VSk6_7lrO1GYOzsb9I7B-29" value="&lt;span style=&quot;font-size: 14px;&quot;&gt;Admin&lt;/span&gt;" style="text;html=1;align=center;verticalAlign=middle;whiteSpace=wrap;rounded=0;" parent="1" vertex="1">
          <mxGeometry x="423.5" y="570" width="101" height="30" as="geometry" />
        </mxCell>
        <mxCell id="VSk6_7lrO1GYOzsb9I7B-30" value="&lt;span style=&quot;font-size: 14px;&quot;&gt;Quizz&lt;/span&gt;" style="text;html=1;align=center;verticalAlign=middle;whiteSpace=wrap;rounded=0;" parent="1" vertex="1">
          <mxGeometry x="199" y="610" width="101" height="30" as="geometry" />
        </mxCell>
        <mxCell id="VSk6_7lrO1GYOzsb9I7B-31" value="&lt;span style=&quot;font-size: 14px;&quot;&gt;Question&lt;/span&gt;" style="text;html=1;align=center;verticalAlign=middle;whiteSpace=wrap;rounded=0;" parent="1" vertex="1">
          <mxGeometry x="309" y="610" width="101" height="30" as="geometry" />
        </mxCell>
        <mxCell id="VSk6_7lrO1GYOzsb9I7B-33" value="&lt;span style=&quot;font-size: 14px;&quot;&gt;Score&lt;/span&gt;" style="text;html=1;align=center;verticalAlign=middle;whiteSpace=wrap;rounded=0;" parent="1" vertex="1">
          <mxGeometry x="423.5" y="610" width="101" height="30" as="geometry" />
        </mxCell>
        <mxCell id="XRUBSMXzEVKdWdNX7KC4-1" value="" style="endArrow=classic;html=1;rounded=0;entryX=0.431;entryY=1.022;entryDx=0;entryDy=0;entryPerimeter=0;" edge="1" parent="1" target="VSk6_7lrO1GYOzsb9I7B-1">
          <mxGeometry width="50" height="50" relative="1" as="geometry">
            <mxPoint x="350" y="240" as="sourcePoint" />
            <mxPoint x="400" y="190" as="targetPoint" />
          </mxGeometry>
        </mxCell>
        <mxCell id="XRUBSMXzEVKdWdNX7KC4-2" value="" style="endArrow=classic;html=1;rounded=0;exitX=0.6;exitY=1;exitDx=0;exitDy=0;exitPerimeter=0;entryX=0.602;entryY=0.018;entryDx=0;entryDy=0;entryPerimeter=0;" edge="1" parent="1" source="VSk6_7lrO1GYOzsb9I7B-1" target="VSk6_7lrO1GYOzsb9I7B-8">
          <mxGeometry width="50" height="50" relative="1" as="geometry">
            <mxPoint x="390" y="300" as="sourcePoint" />
            <mxPoint x="440" y="250" as="targetPoint" />
          </mxGeometry>
        </mxCell>
        <mxCell id="XRUBSMXzEVKdWdNX7KC4-3" value="" style="endArrow=classic;html=1;rounded=0;entryX=0.431;entryY=1.022;entryDx=0;entryDy=0;entryPerimeter=0;" edge="1" parent="1">
          <mxGeometry width="50" height="50" relative="1" as="geometry">
            <mxPoint x="350" y="398" as="sourcePoint" />
            <mxPoint x="351" y="350" as="targetPoint" />
          </mxGeometry>
        </mxCell>
        <mxCell id="XRUBSMXzEVKdWdNX7KC4-4" value="" style="endArrow=classic;html=1;rounded=0;exitX=0.6;exitY=1;exitDx=0;exitDy=0;exitPerimeter=0;entryX=0.602;entryY=0.018;entryDx=0;entryDy=0;entryPerimeter=0;" edge="1" parent="1">
          <mxGeometry width="50" height="50" relative="1" as="geometry">
            <mxPoint x="413" y="350" as="sourcePoint" />
            <mxPoint x="414" y="402" as="targetPoint" />
          </mxGeometry>
        </mxCell>
        <mxCell id="XRUBSMXzEVKdWdNX7KC4-5" value="" style="endArrow=classic;html=1;rounded=0;entryX=0.431;entryY=1.022;entryDx=0;entryDy=0;entryPerimeter=0;" edge="1" parent="1">
          <mxGeometry width="50" height="50" relative="1" as="geometry">
            <mxPoint x="354" y="558" as="sourcePoint" />
            <mxPoint x="355" y="510" as="targetPoint" />
          </mxGeometry>
        </mxCell>
        <mxCell id="XRUBSMXzEVKdWdNX7KC4-6" value="" style="endArrow=classic;html=1;rounded=0;exitX=0.6;exitY=1;exitDx=0;exitDy=0;exitPerimeter=0;entryX=0.602;entryY=0.018;entryDx=0;entryDy=0;entryPerimeter=0;" edge="1" parent="1">
          <mxGeometry width="50" height="50" relative="1" as="geometry">
            <mxPoint x="414" y="510" as="sourcePoint" />
            <mxPoint x="415" y="562" as="targetPoint" />
          </mxGeometry>
        </mxCell>
        <mxCell id="XRUBSMXzEVKdWdNX7KC4-8" value="Student" style="rounded=0;whiteSpace=wrap;html=1;" vertex="1" parent="1">
          <mxGeometry x="217" y="-70" width="120" height="60" as="geometry" />
        </mxCell>
        <mxCell id="XRUBSMXzEVKdWdNX7KC4-9" value="Lecturer" style="rounded=0;whiteSpace=wrap;html=1;" vertex="1" parent="1">
          <mxGeometry x="310" width="120" height="60" as="geometry" />
        </mxCell>
        <mxCell id="XRUBSMXzEVKdWdNX7KC4-10" value="Admin" style="rounded=0;whiteSpace=wrap;html=1;" vertex="1" parent="1">
          <mxGeometry x="404.5" y="-70" width="120" height="60" as="geometry" />
        </mxCell>
        <mxCell id="XRUBSMXzEVKdWdNX7KC4-12" value="" style="endArrow=classic;html=1;rounded=0;entryX=0.431;entryY=1.022;entryDx=0;entryDy=0;entryPerimeter=0;exitX=0.186;exitY=0.009;exitDx=0;exitDy=0;exitPerimeter=0;" edge="1" parent="1" source="VSk6_7lrO1GYOzsb9I7B-1">
          <mxGeometry width="50" height="50" relative="1" as="geometry">
            <mxPoint x="264" y="38" as="sourcePoint" />
            <mxPoint x="265" y="-10" as="targetPoint" />
          </mxGeometry>
        </mxCell>
        <mxCell id="XRUBSMXzEVKdWdNX7KC4-13" value="" style="endArrow=classic;html=1;rounded=0;exitX=0.582;exitY=1.023;exitDx=0;exitDy=0;exitPerimeter=0;entryX=0.25;entryY=0;entryDx=0;entryDy=0;" edge="1" parent="1" source="XRUBSMXzEVKdWdNX7KC4-8" target="VSk6_7lrO1GYOzsb9I7B-1">
          <mxGeometry width="50" height="50" relative="1" as="geometry">
            <mxPoint x="290" y="-10" as="sourcePoint" />
            <mxPoint x="291" y="42" as="targetPoint" />
          </mxGeometry>
        </mxCell>
        <mxCell id="XRUBSMXzEVKdWdNX7KC4-14" value="" style="endArrow=classic;html=1;rounded=0;entryX=0.431;entryY=1.022;entryDx=0;entryDy=0;entryPerimeter=0;exitX=0.186;exitY=0.009;exitDx=0;exitDy=0;exitPerimeter=0;" edge="1" parent="1">
          <mxGeometry width="50" height="50" relative="1" as="geometry">
            <mxPoint x="455" y="81" as="sourcePoint" />
            <mxPoint x="455" y="-10" as="targetPoint" />
          </mxGeometry>
        </mxCell>
        <mxCell id="XRUBSMXzEVKdWdNX7KC4-15" value="" style="endArrow=classic;html=1;rounded=0;exitX=0.582;exitY=1.023;exitDx=0;exitDy=0;exitPerimeter=0;entryX=0.25;entryY=0;entryDx=0;entryDy=0;" edge="1" parent="1">
          <mxGeometry width="50" height="50" relative="1" as="geometry">
            <mxPoint x="474.5" y="-9" as="sourcePoint" />
            <mxPoint x="475.5" y="80" as="targetPoint" />
          </mxGeometry>
        </mxCell>
        <mxCell id="XRUBSMXzEVKdWdNX7KC4-16" value="" style="endArrow=classic;html=1;rounded=0;entryX=0.431;entryY=1.022;entryDx=0;entryDy=0;entryPerimeter=0;" edge="1" parent="1">
          <mxGeometry width="50" height="50" relative="1" as="geometry">
            <mxPoint x="360" y="80" as="sourcePoint" />
            <mxPoint x="359" y="60" as="targetPoint" />
          </mxGeometry>
        </mxCell>
        <mxCell id="XRUBSMXzEVKdWdNX7KC4-17" value="" style="endArrow=classic;html=1;rounded=0;exitX=0.582;exitY=1.023;exitDx=0;exitDy=0;exitPerimeter=0;" edge="1" parent="1">
          <mxGeometry width="50" height="50" relative="1" as="geometry">
            <mxPoint x="379.5" y="61" as="sourcePoint" />
            <mxPoint x="380" y="80" as="targetPoint" />
          </mxGeometry>
        </mxCell>
      </root>
    </mxGraphModel>
  </diagram>
</mxfile>
